<?xml version="1.0" encoding="iso-8859-1"?>
<!-- Generator: Adobe Illustrator 17.1.0, SVG Export Plug-In . SVG Version: 6.00 Build 0)  -->
<!DOCTYPE svg PUBLIC "-//W3C//DTD SVG 1.1//EN" "http://www.w3.org/Graphics/SVG/1.1/DTD/svg11.dtd">
<svg version="1.1" id="Capa_1" fill="#ffffff" xmlns="http://www.w3.org/2000/svg" xmlns:xlink="http://www.w3.org/1999/xlink" x="0px" y="0px"
	 viewBox="0 0 352.15 352.15" style="enable-background:new 0 0 352.15 352.15;" xml:space="preserve">
<g>
	<path d="M182.381,92.022c-12.696,0-21.861,7.788-26.784,11.972c-0.463,0.393-0.98,0.832-1.434,1.202
		c-0.323-0.28-0.672-0.59-0.989-0.871c-4.503-3.993-13.873-12.303-27.415-12.303c-17.827,0-32.576,11.467-33.579,26.104
		c-0.634,9.191,3.911,15.711,7.384,19.814c7.856,9.285,44.904,34.459,54.563,34.459c9.639,0,46.614-25.175,54.456-34.462
		c3.765-4.458,8.006-10.739,7.381-19.811C214.959,103.489,200.208,92.022,182.381,92.022z"/>
	<path d="M308.065,124.441c-1.222-27.777-18.234-52.333-48.229-69.423c-27.682-15.771-65.243-24.457-105.765-24.457
		S75.989,39.247,48.308,55.019C17.156,72.767,0,98.567,0,127.666c0,13.665,3.785,26.602,11.024,38.32
		c8.272,37.419,22.196,71.321,40.006,96.968c27.019,38.907,61.689,58.635,103.05,58.635c41.752,0,76.538-19.709,103.394-58.578
		c2.591-3.75,5.099-7.685,7.521-11.789c6.375,2.021,13.158,3.118,20.193,3.118c36.924,0,66.963-30.039,66.963-66.963
		C352.15,158.485,333.757,133.81,308.065,124.441z M154.109,195.897c-68.503,0-124.035-27.096-124.035-68.231
		c0-1.567,0.09-3.11,0.249-4.636h-0.05c0.102-0.894,0.243-1.78,0.404-2.661c6.158-37.012,59.067-60.934,123.432-60.934
		c68.503,0,124.035,27.096,124.035,68.231C278.144,168.801,222.611,195.897,154.109,195.897z M285.188,219.34
		c-1.486,0-2.947-0.11-4.38-0.308c6.683-16.371,12.205-34.267,16.345-53.098c1.307-2.119,2.492-4.281,3.571-6.478
		c9.789,5.469,16.427,15.932,16.427,27.92C317.15,205.001,302.812,219.34,285.188,219.34z"/>
</g>
<g>
</g>
<g>
</g>
<g>
</g>
<g>
</g>
<g>
</g>
<g>
</g>
<g>
</g>
<g>
</g>
<g>
</g>
<g>
</g>
<g>
</g>
<g>
</g>
<g>
</g>
<g>
</g>
<g>
</g>
</svg>
