<?xml version="1.0" encoding="iso-8859-1"?>
<!-- Generator: Adobe Illustrator 18.1.1, SVG Export Plug-In . SVG Version: 6.00 Build 0)  -->
<svg version="1.1" id="Capa_1" xmlns="http://www.w3.org/2000/svg" xmlns:xlink="http://www.w3.org/1999/xlink" x="0px" y="0px"
	 viewBox="0 0 57.619 57.619" style="enable-background:new 0 0 57.619 57.619;" xml:space="preserve">
<g>
	<g>
		<path style="fill:#ffffff;" d="M41.386,22.913c-8.338-4.399-17.03-8.156-26.206-10.408C8.554,10.88,5.029,18.8,8.231,22.974
			c0.086,0.834,0.452,1.679,1.195,2.444c2.16,2.226,4.121,4.654,5.98,7.157C12.01,32.72,8.602,32.69,5.329,32.206
			c-5.345-0.793-7.646,7.376-2.253,8.174c6.641,0.982,13.46,0.675,20.137,0.15c2.941-0.229,5.623-3.515,3.659-6.377
			c-1.22-1.777-2.459-3.563-3.736-5.33c2.337,0.926,4.638,1.943,6.916,3.035c0.348,4.735,3.179,9.304,6.988,12.438
			c4.185,3.443,10.217-2.518,5.994-5.993c-1.121-0.924-2.363-2.146-3.273-3.509C44.602,33.284,47.119,25.939,41.386,22.913z"/>
		<circle style="fill:#ffffff;" cx="51.343" cy="32.137" r="6.276"/>
	</g>
</g>
<g>
</g>
<g>
</g>
<g>
</g>
<g>
</g>
<g>
</g>
<g>
</g>
<g>
</g>
<g>
</g>
<g>
</g>
<g>
</g>
<g>
</g>
<g>
</g>
<g>
</g>
<g>
</g>
<g>
</g>
</svg>
